<svg
   width="16"
   height="16"
   viewBox="0 0 4.2333333 4.2333332"
   version="1.1"
   id="svg1"
   xmlns="http://www.w3.org/2000/svg"
   xmlns:svg="http://www.w3.org/2000/svg">
  <defs
     id="defs1" />
  <g
     id="layer1">
    <path
       id="path22"
       style="display:inline;stroke-width:0;stroke-miterlimit:6.9"
       d="M 2.6520004,0.26478439 C 2.467801,0.26345163 2.323653,0.46754234 2.3808187,0.64119493 2.3987896,0.70733481 2.4413567,0.76614925 2.4975608,0.80517059 2.3702411,1.1822097 2.2429214,1.5592488 2.1156017,1.9362879 1.9894737,1.5593523 1.8580241,1.180539 1.73522,0.80477624 1.8818665,0.70742796 1.9051492,0.47517236 1.7781734,0.35217107 1.6666766,0.23167434 1.4517634,0.23845646 1.3507657,0.36928366 c -0.1158061,0.13270132 -0.078312,0.36591491 0.079703,0.44872525 0.047978,0.008449 0.020924,0.0543324 0.019418,0.0883867 C 1.3993645,1.2461002 1.3488422,1.5858046 1.2983199,1.9255091 1.1140814,1.5451108 0.92545626,1.1640922 0.74496568,0.78361298 0.87610584,0.67068099 0.87534599,0.44281381 0.7395138,0.33371594 0.6153308,0.2228427 0.39851776,0.25364809 0.31235574,0.39708695 c -0.0989301,0.14379333 -0.0381794,0.3696206 0.12664168,0.4350255 0.0289038,0.0128499 0.0600317,0.0209459 0.0915928,0.0232716 C 0.70414106,1.8931712 0.87762153,2.9309702 1.0512163,3.9687499 1.7608066,3.9687106 2.4703969,3.9686557 3.1799871,3.9686153 3.353699,2.9311849 3.5267111,1.8930438 3.7007448,0.85603813 3.8740516,0.84515486 4.005556,0.65764782 3.9594529,0.49066329 3.9249526,0.32792126 3.7338638,0.21925171 3.5777751,0.28317506 3.4096862,0.34181278 3.3323652,0.56714655 3.4312289,0.71603555 c 0.011825,0.0282399 0.047386,0.0499453 0.054036,0.0740205 C 3.301138,1.1685394 3.1170108,1.5470227 2.9328836,1.9255059 2.8796754,1.561758 2.8224213,1.1954403 2.7717405,0.83329748 2.9344842,0.76686036 3.0022969,0.54330618 2.9015492,0.39841527 2.8488791,0.31491861 2.7508901,0.26178188 2.6520004,0.26478123 Z M 2.0485683,2.7620496 c 0.020553,0.039985 0.017633,0.1146595 0.079389,0.1113371 0.044754,-0.036334 0.044127,-0.1024105 0.069107,-0.1515654 C 2.3229916,2.367875 2.4489191,2.0139287 2.5748464,1.6599825 2.6403154,2.1000275 2.7056716,2.5400893 2.7712149,2.9801232 2.9006615,2.7144104 3.0299648,2.4486279 3.1593515,2.1828859 3.0775975,2.6716128 2.9958425,3.1603396 2.9140881,3.6490663 2.3817639,3.6491101 1.8494398,3.6491538 1.3171156,3.6492009 1.235361,3.1604741 1.1536066,2.6717473 1.0718521,2.1830205 c 0.1293864,0.265742 0.2586905,0.5315243 0.3881366,0.7972372 0.06555,-0.4401205 0.1308987,-0.8802711 0.1963685,-1.3204036 0.130737,0.3673995 0.2614741,0.734799 0.3922111,1.1021986 z" />
  </g>
</svg>
