<svg xmlns="http://www.w3.org/2000/svg" width="16" height="16" viewBox="0 0 16 16" version="1.1">
  <path
     d="M 4.4665829,0.06498805 C 4.3585214,0.06267347 4.2505759,0.06362949 4.14309,0.06750391 2.717697,0.10156854 1.2361158,0.87024584 0.54368669,2.3296332 -0.2730821,4.059369 -0.07326399,6.4483802 1.2453481,7.7988749 2.4334136,9.0096438 4.2204782,9.2240105 5.7114212,8.7096999 5.9828713,8.6119304 6.2452006,8.4800227 6.4909795,8.3176854 6.531318,9.1766757 6.3090995,10.194175 5.5546858,10.584821 4.1941244,11.284359 2.427403,10.693672 1.4343587,10.338202 2.8857129,12.293814 4.2504643,12.301865 6.2279006,11.885205 7.44933,11.394317 8.3534021,10.116732 8.4014022,8.6142002 8.3960475,6.4626702 8.3147191,4.310063 8.280427,2.1581271 8.2663264,1.5116678 8.2575358,0.83125718 8.2425874,0.18482211 7.6746854,0.18009231 7.2126049,0.26972356 7.1816639,0.29462898 7.0606129,0.44499843 6.8833646,0.9473396 6.6469117,0.67913167 5.9857717,0.25507576 5.2230091,0.08115492 4.466574,0.06500013 Z M 4.4532409,1.7635972 h 1.606e-4 C 5.1899887,1.758495 5.960462,2.0068071 6.4909929,2.6068207 6.4804621,3.9105241 6.5119207,5.2332282 6.4752413,6.5251746 5.838224,7.5804195 4.31522,7.4623113 3.304559,6.9627924 2.3215726,6.4802077 1.8560785,5.1816316 2.0058305,4.0301972 2.0672752,2.9928666 2.763814,2.0612371 3.6759002,1.8632098 3.9304876,1.792531 4.1916434,1.767685 4.4532275,1.7635972 Z m 2.5912633,2.5000836 c 0.2927929,-5.69e-5 0.5302052,0.2675171 0.5303034,0.5976784 l -0.00268,-9.01e-5 0.00268,2.692e-4 C 7.5747942,5.1917695 7.3373596,5.4594526 7.0445042,5.4593958 6.7517738,5.4593525 6.5144597,5.1918078 6.5143615,4.8617169 6.5142857,4.5314867 6.7516489,4.2637241 7.0445042,4.2636808 Z" />
  <path
     d="m 12.104131,0.18123154 c -0.116111,-0.003824 -0.232222,-0.00312 -0.347812,0.001811 C 10.93325,0.21896429 10.112032,0.46746555 9.4022317,0.94364337 9.3254146,0.73004653 9.2770263,0.26411427 9.0374097,0.22006221 8.461739,0.16199534 8.1150202,0.1701779 7.5833737,0.25082101 7.6526229,4.4216316 7.9833892,11.731965 8.0526339,15.902774 8.6052439,15.633633 8.756348,15.656885 9.3356241,15.882044 9.3408449,14.514455 9.4807444,9.9525912 9.4990395,8.6101095 10.723816,9.4048454 12.281487,9.3886816 13.572634,8.8055801 14.871831,8.2154045 15.779584,6.7610247 15.903513,5.1982268 16.091538,3.6315273 15.597485,1.893533 14.402263,0.98192809 13.731917,0.4520464 12.916911,0.2078714 12.104131,0.18126777 Z M 11.568902,1.8987976 c 0.922246,-0.036057 1.893234,0.5240736 2.229935,1.5303218 0.399007,1.1558755 0.283984,2.6746878 -0.587688,3.524372 C 12.329888,7.7398048 10.997416,7.6385523 10.08641,6.9669059 9.802622,6.7124225 9.4779064,6.4141667 9.4912529,5.9444858 V 2.6771046 C 10.080538,2.1698772 10.829985,1.9031073 11.568902,1.8987991 Z M 8.9180275,4.2637588 c 0.2928553,-5.68e-5 0.5302944,0.2676263 0.5303033,0.5978575 l -0.00402,-0.00862 0.00402,0.00881 C 9.4483219,5.1919578 9.210981,5.4596112 8.9181881,5.4596545 8.6253328,5.4597088 8.3878982,5.1920267 8.3878892,4.8617975 8.3878134,4.5315688 8.6251721,4.2638066 8.9180275,4.2637609 Z" />
</svg>
